<?xml version="1.0" encoding="UTF-8"?>
<!DOCTYPE svg PUBLIC "-//W3C//DTD SVG 1.1//EN" "http://www.w3.org/Graphics/SVG/1.1/DTD/svg11.dtd">
<svg xmlns="http://www.w3.org/2000/svg" version="1.1" width="128px" height="128px" style="shape-rendering:geometricPrecision; text-rendering:geometricPrecision; image-rendering:optimizeQuality; fill-rule:evenodd; clip-rule:evenodd" xmlns:xlink="http://www.w3.org/1999/xlink">
<g><path style="opacity:1" fill="#04ea78" d="M 23.5,-0.5 C 49.1667,-0.5 74.8333,-0.5 100.5,-0.5C 113.381,5.9377 116.547,15.6044 110,28.5C 108.143,31.1998 105.643,32.8665 102.5,33.5C 83.1377,12.9272 61.471,10.0938 37.5,25C 29.1937,31.7902 23.5271,40.2902 20.5,50.5C 9.07577,60.3512 2.07577,72.6846 -0.5,87.5C -0.5,66.1667 -0.5,44.8333 -0.5,23.5C 3.16667,11.1667 11.1667,3.16667 23.5,-0.5 Z"/></g>
<g><path style="opacity:0.986" fill="#02d264" d="M 100.5,-0.5 C 101.5,-0.5 102.5,-0.5 103.5,-0.5C 115.833,3.16667 123.833,11.1667 127.5,23.5C 127.5,27.1667 127.5,30.8333 127.5,34.5C 126.44,40.972 123.94,46.972 120,52.5C 117.721,55.3806 114.888,57.3806 111.5,58.5C 110.462,49.4313 107.462,41.098 102.5,33.5C 105.643,32.8665 108.143,31.1998 110,28.5C 116.547,15.6044 113.381,5.9377 100.5,-0.5 Z"/></g>
<g><path style="opacity:1" fill="#f9fefb" d="M 102.5,33.5 C 107.462,41.098 110.462,49.4313 111.5,58.5C 110.051,87.2826 95.0506,103.616 66.5,107.5C 63.4816,107.665 60.4816,107.498 57.5,107C 51.9457,105.305 46.4457,103.472 41,101.5C 34.9446,102.963 28.9446,104.63 23,106.5C 22.228,106.355 21.5613,106.022 21,105.5C 21.8493,98.7621 23.3493,92.0954 25.5,85.5C 20.3134,74.3411 18.6467,62.6745 20.5,50.5C 23.5271,40.2902 29.1937,31.7902 37.5,25C 61.471,10.0938 83.1377,12.9272 102.5,33.5 Z"/></g>
<g><path style="opacity:1" fill="#11eb7a" d="M 92.5,35.5 C 78.8293,35.3334 65.1626,35.5001 51.5,36C 45.5994,36.7248 39.9327,38.2248 34.5,40.5C 48.0458,22.3911 65.0458,18.5577 85.5,29C 88.3312,30.6657 90.6645,32.8324 92.5,35.5 Z"/></g>
<g><path style="opacity:1" fill="#0cd266" d="M 92.5,35.5 C 101.885,44.716 105.219,55.716 102.5,68.5C 102.5,66.5 102.5,64.5 102.5,62.5C 97.8642,63.1489 93.1976,63.6489 88.5,64C 84.9647,64.6633 81.9647,66.1633 79.5,68.5C 78.8501,68.1961 78.1835,67.8627 77.5,67.5C 75.3411,69.9947 72.6745,71.6614 69.5,72.5C 61.0615,70.3947 56.0615,65.0614 54.5,56.5C 55.7444,53.9133 57.411,51.5799 59.5,49.5C 57.8793,45.7557 55.8793,42.2557 53.5,39C 47.1988,38.796 43.8655,41.9627 43.5,48.5C 45.3568,63.6689 53.0235,74.6689 66.5,81.5C 63.9944,86.8595 62.9944,92.5261 63.5,98.5C 61.8333,98.5 60.1667,98.5 58.5,98.5C 53.2289,97.7005 48.2289,96.0338 43.5,93.5C 39.0402,94.4311 34.7069,95.7644 30.5,97.5C 30.5774,92.6594 31.5774,87.8261 33.5,83C 28.113,73.8361 26.2796,64.0028 28,53.5C 29.1431,48.5469 31.3097,44.2136 34.5,40.5C 39.9327,38.2248 45.5994,36.7248 51.5,36C 65.1626,35.5001 78.8293,35.3334 92.5,35.5 Z"/></g>
<g><path style="opacity:1" fill="#f9fdfb" d="M 79.5,68.5 C 82.5525,69.7769 85.3859,71.4436 88,73.5C 88.8061,78.0598 86.9727,81.2265 82.5,83C 77.0557,83.6357 71.7224,83.1357 66.5,81.5C 53.0235,74.6689 45.3568,63.6689 43.5,48.5C 43.8655,41.9627 47.1988,38.796 53.5,39C 55.8793,42.2557 57.8793,45.7557 59.5,49.5C 57.411,51.5799 55.7444,53.9133 54.5,56.5C 56.0615,65.0614 61.0615,70.3947 69.5,72.5C 72.6745,71.6614 75.3411,69.9947 77.5,67.5C 78.1835,67.8627 78.8501,68.1961 79.5,68.5 Z"/></g>
<g><path style="opacity:1" fill="#04b951" d="M 127.5,34.5 C 127.5,57.5 127.5,80.5 127.5,103.5C 123.833,115.833 115.833,123.833 103.5,127.5C 98.5,127.5 93.5,127.5 88.5,127.5C 79.409,124.359 72.2424,118.692 67,110.5C 66.5172,109.552 66.3505,108.552 66.5,107.5C 95.0506,103.616 110.051,87.2826 111.5,58.5C 114.888,57.3806 117.721,55.3806 120,52.5C 123.94,46.972 126.44,40.972 127.5,34.5 Z"/></g>
<g><path style="opacity:0.995" fill="#03d264" d="M 20.5,50.5 C 18.6467,62.6745 20.3134,74.3411 25.5,85.5C 23.3493,92.0954 21.8493,98.7621 21,105.5C 21.5613,106.022 22.228,106.355 23,106.5C 28.9446,104.63 34.9446,102.963 41,101.5C 46.4457,103.472 51.9457,105.305 57.5,107C 60.4816,107.498 63.4816,107.665 66.5,107.5C 66.3505,108.552 66.5172,109.552 67,110.5C 72.2424,118.692 79.409,124.359 88.5,127.5C 66.8333,127.5 45.1667,127.5 23.5,127.5C 11.1667,123.833 3.16667,115.833 -0.5,103.5C -0.5,98.1667 -0.5,92.8333 -0.5,87.5C 2.07577,72.6846 9.07577,60.3512 20.5,50.5 Z"/></g>
<g><path style="opacity:1" fill="#0dba53" d="M 102.5,68.5 C 98.76,84.7406 88.76,94.9073 72.5,99C 67.6478,99.8151 62.9811,99.6484 58.5,98.5C 60.1667,98.5 61.8333,98.5 63.5,98.5C 62.9944,92.5261 63.9944,86.8595 66.5,81.5C 71.7224,83.1357 77.0557,83.6357 82.5,83C 86.9727,81.2265 88.8061,78.0598 88,73.5C 85.3859,71.4436 82.5525,69.7769 79.5,68.5C 81.9647,66.1633 84.9647,64.6633 88.5,64C 93.1976,63.6489 97.8642,63.1489 102.5,62.5C 102.5,64.5 102.5,66.5 102.5,68.5 Z"/></g>
</svg>
