<?xml version="1.0" encoding="UTF-8"?>
<!DOCTYPE svg PUBLIC "-//W3C//DTD SVG 1.1//EN" "http://www.w3.org/Graphics/SVG/1.1/DTD/svg11.dtd">
<svg xmlns="http://www.w3.org/2000/svg" version="1.1" width="64px" height="64px" style="shape-rendering:geometricPrecision; text-rendering:geometricPrecision; image-rendering:optimizeQuality; fill-rule:evenodd; clip-rule:evenodd" xmlns:xlink="http://www.w3.org/1999/xlink">
<g><path style="opacity:0.994" fill="#2aa71b" d="M 3.5,-0.5 C 22.1667,-0.5 40.8333,-0.5 59.5,-0.5C 60.5,1.16667 61.8333,2.5 63.5,3.5C 63.5,22.1667 63.5,40.8333 63.5,59.5C 61.8333,60.5 60.5,61.8333 59.5,63.5C 40.8333,63.5 22.1667,63.5 3.5,63.5C 2.5,61.8333 1.16667,60.5 -0.5,59.5C -0.5,40.8333 -0.5,22.1667 -0.5,3.5C 1.16667,2.5 2.5,1.16667 3.5,-0.5 Z"/></g>
<g><path style="opacity:1" fill="#eff8ee" d="M 26.5,11.5 C 45.0518,11.3026 52.8851,20.3026 50,38.5C 43.6922,49.8255 34.3588,53.4921 22,49.5C 18.7869,50.0072 15.6203,50.6739 12.5,51.5C 12.1667,51 11.8333,50.5 11.5,50C 12.2939,47.031 12.9605,44.031 13.5,41C 9.29267,27.258 13.626,17.4247 26.5,11.5 Z"/></g>
<g><path style="opacity:1" fill="#33a924" d="M 27.5,15.5 C 43.3323,16.1556 49.1656,24.1556 45,39.5C 38.7954,46.7423 31.2954,48.409 22.5,44.5C 20.8653,45.0463 19.1986,45.3796 17.5,45.5C 18.6181,42.3725 18.4514,39.3725 17,36.5C 14.6963,26.44 18.1963,19.44 27.5,15.5 Z"/></g>
<g><path style="opacity:1" fill="#f4faf3" d="M 24.5,21.5 C 25.7899,22.0577 26.6232,23.0577 27,24.5C 27.3052,26.5568 27.3052,28.5568 27,30.5C 28.8333,32.3333 30.6667,34.1667 32.5,36C 34.1068,36.1151 35.6068,35.6151 37,34.5C 38.4397,35.1476 39.9397,35.4809 41.5,35.5C 41.4362,39.0624 39.6028,40.7291 36,40.5C 28.2867,39.1209 23.4534,34.6209 21.5,27C 21.8627,24.8077 22.8627,22.9744 24.5,21.5 Z"/></g>
</svg>
